<?xml version="1.0" encoding="UTF-8"?>
<svg xmlns="http://www.w3.org/2000/svg" xmlns:xlink="http://www.w3.org/1999/xlink" width="150px" height="65px" viewBox="0 0 149 65" version="1.1">
<defs>
<linearGradient id="linear0" gradientUnits="userSpaceOnUse" x1="0" y1="0" x2="1" y2="0" gradientTransform="matrix(7.855848,2.654571,-3.663242,5.692746,82.285156,26.722656)">
<stop offset="0" style="stop-color:rgb(100%,0%,0%);stop-opacity:1;"/>
<stop offset="1" style="stop-color:rgb(94.509804%,54.117647%,1.568627%);stop-opacity:1;"/>
</linearGradient>
<linearGradient id="linear1" gradientUnits="userSpaceOnUse" x1="0" y1="0" x2="1" y2="0" gradientTransform="matrix(36.170885,15.168034,-16.866761,32.527953,54.582031,0.0390625)">
<stop offset="0" style="stop-color:rgb(100%,0%,0%);stop-opacity:1;"/>
<stop offset="1" style="stop-color:rgb(94.509804%,54.117647%,1.568627%);stop-opacity:1;"/>
</linearGradient>
<linearGradient id="linear2" gradientUnits="userSpaceOnUse" x1="0" y1="0" x2="1" y2="0" gradientTransform="matrix(31.802199,6.471342,-14.829609,13.877838,57.082031,11.613281)">
<stop offset="0" style="stop-color:rgb(100%,0%,0%);stop-opacity:1;"/>
<stop offset="1" style="stop-color:rgb(94.509804%,54.117647%,1.568627%);stop-opacity:1;"/>
</linearGradient>
</defs>
<g id="surface1">
<path style=" stroke:none;fill-rule:nonzero;fill:rgb(98.823529%,46.27451%,2.352941%);fill-opacity:1;" d="M 2.15625 42.46875 L 0.191406 45.875 L 0.480469 46.164062 C 0.710938 45.375 3.378906 45.136719 8.484375 45.449219 L 5.800781 49.800781 C 3.886719 49.390625 2.59375 49.53125 1.925781 50.226562 L 1.058594 51.851562 C 2.203125 50.949219 3.46875 50.738281 4.859375 51.214844 C 2.273438 54.789062 0.660156 57.523438 0.015625 59.421875 L 0.652344 59.808594 C 1.71875 59.332031 3.410156 59.296875 5.726562 59.710938 C 8.027344 60.109375 9.445312 59.957031 9.988281 59.246094 C 10.515625 58.535156 11.058594 57.484375 11.625 56.09375 L 11.183594 55.78125 C 10.578125 56.464844 8.027344 56.480469 3.527344 55.820312 L 6.1875 51.796875 C 7.0625 52.261719 8.109375 52.242188 9.332031 51.738281 L 10.21875 49.996094 C 8.777344 50.742188 7.691406 50.898438 6.960938 50.460938 L 11.566406 42.949219 L 11.277344 42.429688 Z M 18.066406 47.964844 C 16.78125 47.910156 15.449219 48.335938 14.074219 49.242188 C 12.699219 50.144531 12.410156 51.351562 13.207031 52.859375 L 16.136719 51.136719 C 15.277344 49.796875 15.65625 49.105469 17.277344 49.066406 C 18.894531 49.027344 19.601562 50.125 19.398438 52.355469 L 15.136719 52.433594 L 11.855469 56.128906 C 11.765625 57.214844 12.152344 58.136719 13.015625 58.898438 C 13.875 59.660156 14.722656 60.019531 15.558594 59.980469 C 16.410156 59.941406 17.128906 59.742188 17.71875 59.382812 C 18.324219 59.007812 18.914062 58.480469 19.492188 57.796875 C 19.699219 59.019531 20.414062 59.742188 21.632812 59.960938 L 23.96875 57.425781 L 23.8125 57.097656 C 23.105469 57.253906 22.65625 56.847656 22.464844 55.878906 L 22.484375 51.195312 C 22.378906 49.996094 21.941406 49.167969 21.171875 48.71875 C 20.398438 48.265625 19.363281 48.015625 18.066406 47.964844 Z M 14.558594 54.523438 L 19.398438 54.523438 L 19.398438 56.90625 C 19.074219 57.304688 18.335938 57.484375 17.179688 57.445312 C 16.035156 57.394531 14.996094 56.574219 14.054688 54.988281 Z M 34.089844 41.074219 L 31.507812 42.855469 C 31.929688 43.589844 32.113281 45.472656 32.046875 48.503906 C 31.417969 48.167969 30.824219 48.027344 30.273438 48.078125 C 29.707031 48.117188 29.085938 48.371094 28.402344 48.835938 C 27.722656 49.296875 26.980469 49.925781 26.183594 50.710938 C 25.386719 51.484375 24.855469 52.582031 24.585938 54 C 24.316406 55.421875 24.585938 56.777344 25.394531 58.066406 C 26.203125 59.355469 27.085938 60.027344 28.035156 60.078125 C 28.988281 60.117188 30.394531 59.167969 32.257812 57.234375 C 32.257812 58.484375 32.804688 59.445312 33.898438 60.117188 L 36.191406 58.164062 C 35.269531 57.660156 34.882812 54.722656 35.035156 49.355469 C 35.191406 43.976562 34.875 41.214844 34.089844 41.074219 Z M 27.515625 50.75 C 28.878906 50.632812 29.828125 51.214844 30.371094 52.492188 L 32.105469 50.984375 L 32.105469 51.757812 L 32.164062 52.085938 L 32.164062 56.167969 L 32.007812 56.226562 C 31.765625 56.769531 31.1875 57.074219 30.273438 57.136719 C 29.347656 57.214844 28.519531 56.632812 27.785156 55.394531 C 27.054688 54.167969 26.960938 52.621094 27.515625 50.75 Z M 41.476562 47.964844 C 40 48.929688 38.957031 49.777344 38.351562 50.5 C 37.734375 51.207031 37.304688 51.929688 37.0625 52.667969 C 36.816406 53.390625 36.777344 54.296875 36.945312 55.394531 C 37.097656 56.492188 37.734375 57.542969 38.855469 58.550781 C 39.972656 59.570312 40.867188 60.078125 41.535156 60.078125 C 42.203125 60.089844 43.25 59.441406 44.679688 58.125 C 45.230469 57.621094 45.71875 57.085938 46.144531 56.519531 C 46.554688 55.949219 46.863281 55.148438 47.070312 54.117188 C 47.261719 53.085938 47.089844 51.945312 46.546875 50.691406 C 45.222656 48.628906 43.535156 47.71875 41.476562 47.964844 Z M 41.050781 50.304688 C 42.171875 50.472656 43.050781 51.1875 43.695312 52.453125 C 44.351562 53.71875 44.570312 54.988281 44.351562 56.265625 C 44.132812 57.53125 43.457031 57.859375 42.324219 57.253906 C 41.195312 56.632812 40.339844 55.800781 39.761719 54.757812 C 39.195312 53.710938 38.988281 52.660156 39.144531 51.601562 C 39.296875 50.558594 39.933594 50.125 41.050781 50.304688 Z M 51.003906 47.828125 L 47.78125 50.1875 L 48.089844 50.632812 C 48.734375 50.234375 49.023438 50.640625 48.957031 51.851562 C 48.867188 55.671875 48.882812 57.871094 48.996094 58.453125 C 49.113281 59.046875 49.539062 59.5625 50.269531 60 L 53.066406 57.582031 L 53.066406 57.253906 C 52.476562 57.394531 52.101562 57.066406 51.949219 56.265625 C 51.792969 55.480469 51.761719 53.859375 51.851562 51.410156 C 52.984375 50.390625 53.972656 50.492188 54.820312 51.71875 L 57.210938 49.511719 C 56.210938 48.167969 55.304688 47.652344 54.492188 47.964844 C 53.683594 48.261719 52.820312 48.988281 51.910156 50.148438 C 51.988281 49.054688 51.683594 48.28125 51.003906 47.828125 Z M 61.648438 47.964844 C 60.167969 48.929688 59.128906 49.777344 58.523438 50.5 C 57.90625 51.207031 57.476562 51.929688 57.230469 52.667969 C 56.988281 53.390625 56.949219 54.296875 57.117188 55.394531 C 57.269531 56.492188 57.90625 57.542969 59.023438 58.550781 C 60.144531 59.570312 61.035156 60.078125 61.707031 60.078125 C 62.375 60.089844 63.421875 59.441406 64.847656 58.125 C 65.402344 57.621094 65.890625 57.085938 66.3125 56.519531 C 66.726562 55.949219 67.035156 55.148438 67.238281 54.117188 C 67.433594 53.085938 67.257812 51.945312 66.71875 50.691406 C 65.394531 48.628906 63.703125 47.71875 61.648438 47.964844 Z M 61.222656 50.304688 C 62.328125 50.472656 63.210938 51.1875 63.863281 52.453125 C 64.519531 53.71875 64.738281 54.988281 64.519531 56.265625 C 64.300781 57.53125 63.628906 57.859375 62.496094 57.253906 C 61.363281 56.632812 60.511719 55.800781 59.929688 54.757812 C 59.367188 53.710938 59.160156 52.660156 59.3125 51.601562 C 59.46875 50.558594 60.105469 50.125 61.222656 50.304688 Z M 70.265625 48.097656 L 68.125 51.058594 L 68.300781 51.351562 C 68.828125 50.964844 70.789062 50.816406 74.183594 50.90625 C 70.453125 55.472656 68.324219 58.402344 67.800781 59.691406 L 68.339844 59.941406 C 69.226562 59.621094 70.632812 59.601562 72.5625 59.886719 C 74.503906 60.167969 75.691406 60.066406 76.128906 59.574219 C 76.578125 59.085938 77.125 58.015625 77.769531 56.363281 L 77.402344 56.167969 C 76.835938 56.878906 74.753906 56.960938 71.15625 56.421875 L 77.441406 48.464844 L 77.210938 48.097656 Z M 80.796875 41.304688 L 78.519531 43.125 C 78.738281 43.578125 78.867188 44.183594 78.90625 44.945312 C 78.867188 53.292969 78.925781 57.777344 79.078125 58.394531 C 79.234375 59.027344 79.550781 59.628906 80.023438 60.195312 L 82.820312 57.582031 L 82.820312 57.253906 C 82.230469 57.394531 81.855469 57.066406 81.703125 56.265625 C 81.546875 55.480469 81.515625 53.859375 81.605469 51.410156 C 82.90625 50.414062 83.9375 50.066406 84.710938 50.363281 C 85.496094 50.660156 85.878906 51.730469 85.867188 53.574219 C 85.828125 56.222656 85.835938 57.859375 85.886719 58.492188 C 85.953125 59.125 86.332031 59.671875 87.023438 60.136719 L 89.6875 57.71875 L 89.703125 57.371094 C 89.242188 57.511719 88.941406 57.175781 88.796875 56.363281 C 88.644531 55.550781 88.613281 54.214844 88.703125 52.355469 C 88.765625 51.222656 88.675781 50.3125 88.433594 49.628906 C 88.175781 48.945312 87.648438 48.449219 86.851562 48.136719 C 86.054688 47.816406 85.316406 47.820312 84.632812 48.15625 C 83.9375 48.492188 83.375 48.847656 82.9375 49.222656 C 82.488281 49.582031 82.0625 49.890625 81.664062 50.148438 L 81.605469 42.96875 C 81.492188 42.210938 81.21875 41.652344 80.796875 41.304688 Z M 93.542969 47.828125 L 90.320312 50.1875 L 90.628906 50.632812 C 91.273438 50.234375 91.5625 50.640625 91.5 51.851562 C 91.410156 55.671875 91.421875 57.871094 91.535156 58.453125 C 91.652344 59.046875 92.078125 59.5625 92.808594 60 L 95.605469 57.582031 L 95.605469 57.253906 C 95.015625 57.394531 94.640625 57.066406 94.488281 56.265625 C 94.332031 55.480469 94.300781 53.859375 94.390625 51.410156 C 95.523438 50.390625 96.472656 50.027344 97.246094 50.324219 C 98.027344 50.621094 98.414062 51.691406 98.402344 53.539062 C 98.363281 56.183594 98.371094 57.820312 98.421875 58.453125 C 98.484375 59.085938 98.863281 59.632812 99.558594 60.097656 L 102.296875 57.640625 L 102.238281 57.332031 C 101.777344 57.472656 101.472656 57.136719 101.332031 56.324219 C 101.179688 55.511719 101.148438 54.175781 101.238281 52.316406 C 101.300781 51.183594 101.210938 50.273438 100.964844 49.589844 C 100.710938 48.90625 100.183594 48.410156 99.386719 48.097656 C 98.589844 47.777344 97.847656 47.78125 97.167969 48.117188 C 96.472656 48.453125 95.90625 48.808594 95.472656 49.183594 C 95.019531 49.542969 94.679688 49.867188 94.449219 50.148438 C 94.527344 49.054688 94.222656 48.28125 93.542969 47.828125 Z M 111.882812 47.90625 L 109.164062 49.9375 C 109.5625 49.898438 109.734375 50.332031 109.683594 51.234375 L 109.664062 56.90625 L 109.027344 57.640625 C 108.511719 57.910156 107.992188 57.996094 107.464844 57.890625 C 106.9375 57.800781 106.589844 57.363281 106.425781 56.574219 L 106.441406 50.054688 C 106.289062 48.90625 105.902344 48.203125 105.285156 47.945312 L 102.875 49.722656 C 103.402344 50.085938 103.648438 50.808594 103.609375 51.890625 L 103.589844 56.730469 C 103.691406 57.789062 104.097656 58.628906 104.804688 59.246094 C 105.511719 59.867188 106.378906 60.128906 107.40625 60.039062 C 108.4375 59.949219 109.234375 59.414062 109.796875 58.433594 C 109.941406 60.238281 109.925781 61.535156 109.761719 62.324219 C 109.59375 63.097656 108.886719 63.292969 107.640625 62.902344 C 106.378906 62.503906 105.113281 61.699219 103.839844 60.484375 L 101.757812 62.902344 C 104.175781 64.710938 106.152344 65.347656 107.695312 64.820312 C 109.238281 64.304688 110.441406 63.730469 111.300781 63.097656 C 112.164062 62.464844 112.664062 61.296875 112.808594 59.59375 L 112.789062 50.847656 C 112.878906 49.570312 112.574219 48.589844 111.882812 47.90625 Z M 122.988281 47.90625 L 120.25 49.9375 C 120.660156 49.898438 120.839844 50.332031 120.789062 51.234375 L 120.769531 56.90625 L 120.132812 57.640625 C 119.609375 57.910156 119.082031 57.996094 118.554688 57.890625 C 118.027344 57.800781 117.683594 57.363281 117.53125 56.574219 L 117.550781 50.054688 C 117.382812 48.90625 116.992188 48.203125 116.375 47.945312 L 113.964844 49.722656 C 114.492188 50.085938 114.742188 50.808594 114.714844 51.890625 L 114.695312 56.730469 C 114.785156 57.789062 115.183594 58.628906 115.890625 59.246094 C 116.613281 59.867188 117.480469 60.128906 118.496094 60.039062 C 119.523438 59.949219 120.328125 59.414062 120.90625 58.433594 C 121.035156 60.238281 121.015625 61.535156 120.847656 62.324219 C 120.679688 63.097656 119.972656 63.292969 118.726562 62.902344 C 117.480469 62.503906 116.214844 61.699219 114.929688 60.484375 L 112.84375 62.902344 C 115.273438 64.710938 117.261719 65.347656 118.804688 64.820312 C 120.347656 64.304688 121.542969 63.730469 122.390625 63.097656 C 123.253906 62.464844 123.753906 61.296875 123.894531 59.59375 L 123.875 50.847656 C 123.964844 49.570312 123.667969 48.589844 122.988281 47.90625 Z M 137.277344 42.136719 C 136.839844 42.152344 136.480469 42.253906 136.199219 42.449219 C 135.925781 42.652344 134.988281 43.796875 133.382812 45.875 L 133.921875 46.300781 C 134.460938 45.628906 134.90625 45.1875 135.253906 44.984375 C 135.601562 44.777344 135.851562 45.042969 136.003906 45.777344 L 134 51.621094 L 132.785156 51.621094 L 130.085938 54.273438 L 130.335938 54.699219 C 131.25 54.503906 132.046875 54.433594 132.726562 54.484375 C 132.289062 55.683594 131.878906 56.640625 131.492188 57.351562 C 131.105469 58.046875 130.546875 58.71875 129.816406 59.363281 L 130.007812 59.960938 L 134.289062 59.941406 L 136.179688 57.445312 L 135.984375 57.214844 L 132.726562 57.195312 C 133.355469 56.871094 134 55.96875 134.65625 54.484375 L 137.257812 54.464844 L 138.589844 53.054688 C 139.734375 56.332031 140.570312 58.292969 141.097656 58.9375 C 141.621094 59.59375 142.175781 59.996094 142.753906 60.136719 L 144.796875 57.71875 C 143.769531 57.484375 142.511719 55.007812 141.019531 50.285156 C 139.539062 45.5625 138.660156 43.023438 138.375 42.660156 C 138.09375 42.3125 137.726562 42.136719 137.277344 42.136719 Z M 136.871094 47.925781 L 138.164062 51.738281 L 135.582031 51.71875 Z M 146.804688 55.859375 L 144.507812 57.871094 C 145.371094 58.59375 145.988281 59.351562 146.359375 60.136719 L 148.984375 58.375 C 148.519531 57.035156 147.792969 56.195312 146.804688 55.859375 Z M 146.804688 55.859375 "/>
<path style=" stroke:none;fill-rule:nonzero;fill:url(#linear0);" d="M 88.449219 28.703125 L 89.609375 29.867188 L 88.449219 30.96875 L 89.121094 31.640625 L 90.953125 29.867188 L 89.121094 28.027344 Z M 84.117188 28.027344 L 82.285156 29.867188 L 84.117188 31.640625 L 84.726562 30.96875 L 83.566406 29.867188 L 84.726562 28.703125 Z M 85.5625 33.003906 L 84.742188 32.597656 L 87.636719 26.722656 L 88.457031 27.132812 Z M 85.5625 33.003906 "/>
<path style=" stroke:none;fill-rule:nonzero;fill:url(#linear1);" d="M 94.613281 9.347656 L 74.78125 9.347656 C 74.71875 8.613281 74.71875 6.65625 76.488281 5 C 79.296875 2.429688 78.015625 0.164062 77.953125 0.0390625 L 77.160156 0.46875 C 77.222656 0.53125 78.074219 2.246094 75.878906 4.265625 C 73.863281 6.164062 73.742188 8.308594 73.863281 9.289062 L 54.582031 9.289062 L 54.582031 29.070312 L 80.453125 29.070312 C 80.453125 29.316406 80.394531 29.5 80.394531 29.742188 C 80.394531 33.171875 83.140625 35.929688 86.558594 35.929688 C 89.976562 35.929688 92.722656 33.171875 92.722656 29.742188 C 92.722656 29.5 92.722656 29.253906 92.660156 29.070312 L 94.492188 29.070312 L 94.492188 9.347656 Z M 86.617188 35.132812 C 83.6875 35.132812 81.371094 32.746094 81.371094 29.867188 C 81.371094 26.925781 83.75 24.597656 86.617188 24.597656 C 89.546875 24.597656 91.867188 26.988281 91.867188 29.867188 C 91.867188 32.746094 89.488281 35.132812 86.617188 35.132812 Z M 81.980469 23.25 L 85.214844 23.25 L 85.214844 23.804688 C 83.933594 24.109375 82.835938 24.78125 81.980469 25.761719 Z M 91.195312 25.761719 C 90.339844 24.78125 89.242188 24.109375 87.960938 23.804688 L 87.960938 23.25 L 91.195312 23.25 Z M 93.695312 28.210938 L 92.597656 28.210938 C 92.476562 27.722656 92.292969 27.292969 92.050781 26.863281 L 92.171875 26.863281 L 92.171875 22.273438 L 87.105469 22.273438 L 87.105469 23.621094 L 86.128906 23.621094 L 86.128906 22.273438 L 81.066406 22.273438 L 81.066406 26.925781 L 81.1875 26.925781 C 80.941406 27.355469 80.761719 27.785156 80.636719 28.273438 L 55.558594 28.273438 L 55.558594 10.269531 L 93.695312 10.269531 Z M 93.695312 28.210938 "/>
<path style=" stroke:none;fill-rule:nonzero;fill:url(#linear2);" d="M 62.148438 11.613281 L 57.082031 11.613281 L 57.082031 16.207031 L 62.148438 16.207031 Z M 61.234375 15.289062 L 58 15.289062 L 58 12.535156 L 61.234375 12.535156 Z M 68.128906 11.613281 L 63.0625 11.613281 L 63.0625 16.207031 L 68.128906 16.207031 Z M 67.210938 15.289062 L 63.980469 15.289062 L 63.980469 12.535156 L 67.210938 12.535156 Z M 74.167969 11.613281 L 69.105469 11.613281 L 69.105469 16.207031 L 74.167969 16.207031 Z M 73.253906 15.289062 L 70.019531 15.289062 L 70.019531 12.535156 L 73.253906 12.535156 Z M 80.148438 11.613281 L 75.085938 11.613281 L 75.085938 16.207031 L 80.148438 16.207031 Z M 79.234375 15.289062 L 76 15.289062 L 76 12.535156 L 79.234375 12.535156 Z M 86.128906 11.613281 L 81.066406 11.613281 L 81.066406 16.207031 L 86.128906 16.207031 Z M 85.214844 15.289062 L 81.980469 15.289062 L 81.980469 12.535156 L 85.214844 12.535156 Z M 92.171875 11.613281 L 87.105469 11.613281 L 87.105469 16.207031 L 92.171875 16.207031 Z M 91.257812 15.289062 L 88.023438 15.289062 L 88.023438 12.535156 L 91.257812 12.535156 Z M 62.148438 16.945312 L 57.082031 16.945312 L 57.082031 21.535156 L 62.148438 21.535156 Z M 61.234375 20.617188 L 58 20.617188 L 58 17.863281 L 61.234375 17.863281 Z M 68.128906 16.945312 L 63.0625 16.945312 L 63.0625 21.535156 L 68.128906 21.535156 Z M 67.210938 20.617188 L 63.980469 20.617188 L 63.980469 17.863281 L 67.210938 17.863281 Z M 74.167969 16.945312 L 69.105469 16.945312 L 69.105469 21.535156 L 74.167969 21.535156 Z M 73.253906 20.617188 L 70.019531 20.617188 L 70.019531 17.863281 L 73.253906 17.863281 Z M 80.148438 16.945312 L 75.085938 16.945312 L 75.085938 21.535156 L 80.148438 21.535156 Z M 79.234375 20.617188 L 76 20.617188 L 76 17.863281 L 79.234375 17.863281 Z M 86.128906 16.945312 L 81.066406 16.945312 L 81.066406 21.535156 L 86.128906 21.535156 Z M 85.214844 20.617188 L 81.980469 20.617188 L 81.980469 17.863281 L 85.214844 17.863281 Z M 92.171875 16.945312 L 87.105469 16.945312 L 87.105469 21.535156 L 92.171875 21.535156 Z M 91.257812 20.617188 L 88.023438 20.617188 L 88.023438 17.863281 L 91.257812 17.863281 Z M 62.148438 22.332031 L 57.082031 22.332031 L 57.082031 26.925781 L 62.148438 26.925781 Z M 61.234375 26.007812 L 58 26.007812 L 58 23.25 L 61.234375 23.25 Z M 80.148438 22.332031 L 63.0625 22.332031 L 63.0625 26.925781 L 80.148438 26.925781 Z M 79.234375 26.007812 L 63.980469 26.007812 L 63.980469 23.25 L 79.234375 23.25 Z M 79.234375 26.007812 "/>
</g>
</svg>
